<svg xmlns="http://www.w3.org/2000/svg" viewBox="0 0 160 160" role="img" aria-labelledby="title desc">
  <title id="title">Serviciu cu bona</title>
  <desc id="desc">Ilustratie vectoriala cu adult si copil pentru supraveghere.</desc>
  <rect width="160" height="160" rx="26" fill="#e8f0d8"/>
  <circle cx="58" cy="58" r="14" fill="#6d4c41"/>
  <circle cx="98" cy="65" r="10" fill="#6d4c41"/>
  <path d="M39 118c0-20 9-36 19-36s19 16 19 36z" fill="#6d4c41"/>
  <path d="M84 118c0-14 7-25 14-25s14 11 14 25z" fill="#6d4c41"/>
  <path d="M59 76l22 14" stroke="#6d4c41" stroke-width="5" stroke-linecap="round"/>
  <path d="M62 32l5 7 8-5" stroke="#6d4c41" stroke-width="4" stroke-linecap="round" fill="none"/>
  <path d="M111 37c4 0 8 4 8 8 0 6-8 11-8 11s-8-5-8-11c0-4 4-8 8-8z" fill="#8fb28a"/>
</svg>
